<mxfile host="Electron" agent="Mozilla/5.0 (Windows NT 10.0; Win64; x64) AppleWebKit/537.36 (KHTML, like Gecko) draw.io/24.7.8 Chrome/128.0.6613.36 Electron/32.0.1 Safari/537.36" version="24.7.8">
  <diagram name="第 1 页" id="Ybv0C2aQt5Bhv0Cexfn3">
    <mxGraphModel dx="1996" dy="2965" grid="1" gridSize="10" guides="1" tooltips="1" connect="1" arrows="1" fold="1" page="1" pageScale="1" pageWidth="827" pageHeight="1169" math="0" shadow="0">
      <root>
        <mxCell id="0" />
        <mxCell id="1" parent="0" />
        <mxCell id="bsDwbR7L-FgqQBWmkNnx-1" value="&lt;div&gt;初始化流程&lt;/div&gt;app.mount()" style="rounded=0;whiteSpace=wrap;html=1;" vertex="1" parent="1">
          <mxGeometry x="540" y="190" width="120" height="80" as="geometry" />
        </mxCell>
        <mxCell id="bsDwbR7L-FgqQBWmkNnx-13" value="componentUpdateFn" style="rounded=0;whiteSpace=wrap;html=1;" vertex="1" parent="1">
          <mxGeometry x="1480" y="200" width="120" height="80" as="geometry" />
        </mxCell>
        <mxCell id="bsDwbR7L-FgqQBWmkNnx-16" value="将当前组件实例的ReactiveEffect对象赋值给模块内的activeSub" style="rounded=0;whiteSpace=wrap;html=1;" vertex="1" parent="1">
          <mxGeometry x="1320" y="320" width="120" height="80" as="geometry" />
        </mxCell>
        <mxCell id="bsDwbR7L-FgqQBWmkNnx-18" value="" style="endArrow=classic;html=1;rounded=0;" edge="1" parent="1" source="bsDwbR7L-FgqQBWmkNnx-12" target="bsDwbR7L-FgqQBWmkNnx-16">
          <mxGeometry width="50" height="50" relative="1" as="geometry">
            <mxPoint x="1440" y="270" as="sourcePoint" />
            <mxPoint x="1490" y="220" as="targetPoint" />
          </mxGeometry>
        </mxCell>
        <mxCell id="bsDwbR7L-FgqQBWmkNnx-21" value="&lt;div&gt;更新流程&lt;/div&gt;修改ref值&lt;div&gt;ref.value=xxxx&lt;/div&gt;" style="rounded=0;whiteSpace=wrap;html=1;" vertex="1" parent="1">
          <mxGeometry x="540" y="310" width="120" height="80" as="geometry" />
        </mxCell>
        <mxCell id="bsDwbR7L-FgqQBWmkNnx-24" value="调用订阅当前dep的&lt;span style=&quot;color: rgb(25, 28, 32); font-family: monospace; font-weight: 700; text-align: start; text-wrap: nowrap; background-color: rgb(253, 251, 255);&quot;&gt;ReactiveEffect#notify&lt;/span&gt;" style="rounded=0;whiteSpace=wrap;html=1;" vertex="1" parent="1">
          <mxGeometry x="1020" y="310" width="120" height="80" as="geometry" />
        </mxCell>
        <mxCell id="bsDwbR7L-FgqQBWmkNnx-29" value="" style="endArrow=classic;html=1;rounded=0;entryX=0.5;entryY=1;entryDx=0;entryDy=0;" edge="1" parent="1" source="bsDwbR7L-FgqQBWmkNnx-13" target="bsDwbR7L-FgqQBWmkNnx-20">
          <mxGeometry width="50" height="50" relative="1" as="geometry">
            <mxPoint x="1580" y="-50" as="sourcePoint" />
            <mxPoint x="1540" y="-200" as="targetPoint" />
          </mxGeometry>
        </mxCell>
        <mxCell id="bsDwbR7L-FgqQBWmkNnx-30" value="创建ref响应式数据" style="rounded=0;whiteSpace=wrap;html=1;" vertex="1" parent="1">
          <mxGeometry x="1480" y="-120" width="130" height="80" as="geometry" />
        </mxCell>
        <mxCell id="bsDwbR7L-FgqQBWmkNnx-35" value="" style="endArrow=classic;html=1;rounded=0;exitX=1;exitY=0.5;exitDx=0;exitDy=0;entryX=0;entryY=0.5;entryDx=0;entryDy=0;" edge="1" parent="1" source="bsDwbR7L-FgqQBWmkNnx-30" target="bsDwbR7L-FgqQBWmkNnx-34">
          <mxGeometry width="50" height="50" relative="1" as="geometry">
            <mxPoint x="1680" y="-250" as="sourcePoint" />
            <mxPoint x="2000" y="-170" as="targetPoint" />
            <Array as="points">
              <mxPoint x="1610" y="-160" />
            </Array>
          </mxGeometry>
        </mxCell>
        <mxCell id="bsDwbR7L-FgqQBWmkNnx-37" value="" style="endArrow=classic;html=1;rounded=0;exitX=1;exitY=0.75;exitDx=0;exitDy=0;" edge="1" parent="1" source="bsDwbR7L-FgqQBWmkNnx-30" target="bsDwbR7L-FgqQBWmkNnx-31">
          <mxGeometry width="50" height="50" relative="1" as="geometry">
            <mxPoint x="1680" y="-250" as="sourcePoint" />
            <mxPoint x="1730" y="-300" as="targetPoint" />
            <Array as="points">
              <mxPoint x="1610" y="30" />
            </Array>
          </mxGeometry>
        </mxCell>
        <mxCell id="bsDwbR7L-FgqQBWmkNnx-38" value="" style="endArrow=classic;html=1;rounded=0;" edge="1" parent="1" source="bsDwbR7L-FgqQBWmkNnx-1" target="bsDwbR7L-FgqQBWmkNnx-13">
          <mxGeometry width="50" height="50" relative="1" as="geometry">
            <mxPoint x="320.0000000000002" y="240" as="sourcePoint" />
            <mxPoint x="630" y="200" as="targetPoint" />
          </mxGeometry>
        </mxCell>
        <mxCell id="bsDwbR7L-FgqQBWmkNnx-42" value="" style="endArrow=classic;html=1;rounded=0;exitX=0;exitY=0.625;exitDx=0;exitDy=0;exitPerimeter=0;dashed=1;" edge="1" parent="1" source="bsDwbR7L-FgqQBWmkNnx-16" target="bsDwbR7L-FgqQBWmkNnx-20">
          <mxGeometry width="50" height="50" relative="1" as="geometry">
            <mxPoint x="1280" as="sourcePoint" />
            <mxPoint x="1300" y="-480" as="targetPoint" />
            <Array as="points">
              <mxPoint x="1300" y="370" />
              <mxPoint x="1300" y="-480" />
            </Array>
          </mxGeometry>
        </mxCell>
        <mxCell id="bsDwbR7L-FgqQBWmkNnx-11" value="创建ReactiveEffect" style="rounded=0;whiteSpace=wrap;html=1;" vertex="1" parent="1">
          <mxGeometry x="1170" y="200" width="120" height="80" as="geometry" />
        </mxCell>
        <mxCell id="bsDwbR7L-FgqQBWmkNnx-12" value="ReactiveEffect#run" style="rounded=0;whiteSpace=wrap;html=1;" vertex="1" parent="1">
          <mxGeometry x="1320" y="200" width="120" height="80" as="geometry" />
        </mxCell>
        <mxCell id="bsDwbR7L-FgqQBWmkNnx-14" value="调用模板编译或者编写的render函数" style="rounded=0;whiteSpace=wrap;html=1;" vertex="1" parent="1">
          <mxGeometry x="1480" y="40" width="120" height="80" as="geometry" />
        </mxCell>
        <mxCell id="bsDwbR7L-FgqQBWmkNnx-15" value="render运行过程中会读取ref变量，触发ref.value.get或者proxy handler get逻辑" style="rounded=0;whiteSpace=wrap;html=1;" vertex="1" parent="1">
          <mxGeometry x="1480" y="-280" width="120" height="80" as="geometry" />
        </mxCell>
        <mxCell id="bsDwbR7L-FgqQBWmkNnx-19" value="调用ref实例或者proxy的dep.track，用作依赖收集" style="rounded=0;whiteSpace=wrap;html=1;" vertex="1" parent="1">
          <mxGeometry x="1485" y="-400" width="120" height="80" as="geometry" />
        </mxCell>
        <mxCell id="bsDwbR7L-FgqQBWmkNnx-20" value="执行过程中获取当前的activeSub对应的ReactiveEffect并添加到dep的订阅者列表中" style="rounded=0;whiteSpace=wrap;html=1;" vertex="1" parent="1">
          <mxGeometry x="1480" y="-520" width="120" height="80" as="geometry" />
        </mxCell>
        <mxCell id="bsDwbR7L-FgqQBWmkNnx-31" value="直接类型，数据直接存储在ref.value" style="rounded=0;whiteSpace=wrap;html=1;" vertex="1" parent="1">
          <mxGeometry x="1690" y="-10" width="120" height="80" as="geometry" />
        </mxCell>
        <mxCell id="bsDwbR7L-FgqQBWmkNnx-32" value="&lt;span style=&quot;background-color: rgb(255, 255, 255);&quot;&gt;引用类型，通过&lt;span style=&quot;font-family: Consolas, &amp;quot;Courier New&amp;quot;, monospace; font-size: 14px; white-space: pre;&quot;&gt;reactive方法处理&lt;/span&gt;&lt;/span&gt;" style="rounded=0;whiteSpace=wrap;html=1;" vertex="1" parent="1">
          <mxGeometry x="1680" y="-200" width="120" height="80" as="geometry" />
        </mxCell>
        <mxCell id="bsDwbR7L-FgqQBWmkNnx-33" value="使用proxy包装原始数据对线" style="rounded=0;whiteSpace=wrap;html=1;" vertex="1" parent="1">
          <mxGeometry x="1840" y="-200" width="120" height="80" as="geometry" />
        </mxCell>
        <mxCell id="bsDwbR7L-FgqQBWmkNnx-34" value="将proxy和原始对象作为key和value存放到proxyMap中" style="rounded=0;whiteSpace=wrap;html=1;" vertex="1" parent="1">
          <mxGeometry x="2000" y="-200" width="128" height="80" as="geometry" />
        </mxCell>
        <mxCell id="bsDwbR7L-FgqQBWmkNnx-43" value="" style="endArrow=classic;html=1;rounded=0;" edge="1" parent="1" source="bsDwbR7L-FgqQBWmkNnx-21" target="bsDwbR7L-FgqQBWmkNnx-24">
          <mxGeometry width="50" height="50" relative="1" as="geometry">
            <mxPoint x="830" y="300" as="sourcePoint" />
            <mxPoint x="880" y="250" as="targetPoint" />
          </mxGeometry>
        </mxCell>
        <mxCell id="bsDwbR7L-FgqQBWmkNnx-22" value="触发ref.value.set" style="rounded=0;whiteSpace=wrap;html=1;" vertex="1" parent="1">
          <mxGeometry x="700" y="310" width="120" height="80" as="geometry" />
        </mxCell>
        <mxCell id="bsDwbR7L-FgqQBWmkNnx-23" value="调用ref实例上的dep.trigger" style="rounded=0;whiteSpace=wrap;html=1;" vertex="1" parent="1">
          <mxGeometry x="860" y="310" width="120" height="80" as="geometry" />
        </mxCell>
        <mxCell id="bsDwbR7L-FgqQBWmkNnx-44" value="" style="endArrow=classic;html=1;rounded=0;" edge="1" parent="1" source="bsDwbR7L-FgqQBWmkNnx-24" target="bsDwbR7L-FgqQBWmkNnx-26">
          <mxGeometry width="50" height="50" relative="1" as="geometry">
            <mxPoint x="1020" y="375" as="sourcePoint" />
            <mxPoint x="1540" y="280" as="targetPoint" />
            <Array as="points" />
          </mxGeometry>
        </mxCell>
        <mxCell id="bsDwbR7L-FgqQBWmkNnx-26" value="重新渲染组件" style="rounded=0;whiteSpace=wrap;html=1;" vertex="1" parent="1">
          <mxGeometry x="1020" y="530" width="120" height="60" as="geometry" />
        </mxCell>
        <mxCell id="bsDwbR7L-FgqQBWmkNnx-45" value="" style="endArrow=classic;html=1;rounded=0;" edge="1" parent="1" source="bsDwbR7L-FgqQBWmkNnx-26" target="bsDwbR7L-FgqQBWmkNnx-13">
          <mxGeometry width="50" height="50" relative="1" as="geometry">
            <mxPoint x="1070" y="310" as="sourcePoint" />
            <mxPoint x="1560" y="560" as="targetPoint" />
            <Array as="points">
              <mxPoint x="1540" y="560" />
            </Array>
          </mxGeometry>
        </mxCell>
      </root>
    </mxGraphModel>
  </diagram>
</mxfile>
